<?xml version="1.0" encoding="UTF-8" standalone="no"?>
<!-- Created with Inkscape (http://www.inkscape.org/) -->

<svg
   width="91.760567mm"
   height="89.903534mm"
   viewBox="0 0 91.760567 89.903534"
   version="1.1"
   id="svg1"
   xmlns="http://www.w3.org/2000/svg"
   xmlns:svg="http://www.w3.org/2000/svg">
  <defs
     id="defs1" />
  <g
     id="layer1"
     transform="translate(-247.66048,-100.4434)">
    <ellipse
       style="fill:#44aa00;fill-opacity:0.172549;stroke-width:0.181326"
       id="path63"
       cx="293.45932"
       cy="144.75813"
       rx="35.389465"
       ry="34.837643" />
    <rect
       style="fill:#44aa00;fill-opacity:0.172549;stroke-width:0.189158"
       id="rect63"
       width="18.275761"
       height="18.52738"
       x="276.17194"
       y="-93.097122"
       transform="matrix(0.70406492,0.71013562,-0.71366091,0.70049133,0,0)" />
    <rect
       style="fill:#44aa00;fill-opacity:0.172549;stroke-width:0.189158"
       id="rect63-8"
       width="18.275761"
       height="18.52738"
       x="323.56024"
       y="-93.336296"
       transform="matrix(0.70406492,0.71013562,-0.71366091,0.70049133,0,0)" />
    <rect
       style="fill:#44aa00;fill-opacity:0.172549;stroke-width:0.189158"
       id="rect63-8-5"
       width="18.275761"
       height="18.52738"
       x="323.82391"
       y="-138.10573"
       transform="matrix(0.70406492,0.71013562,-0.71366091,0.70049133,0,0)" />
    <rect
       style="fill:#44aa00;fill-opacity:0.172549;stroke-width:0.189158"
       id="rect63-8-5-1"
       width="18.275761"
       height="18.52738"
       x="276.35178"
       y="-136.76663"
       transform="matrix(0.70406492,0.71013562,-0.71366091,0.70049133,0,0)" />
    <path
       style="fill:#131210;fill-opacity:0.172549;stroke-width:0.25036"
       d="m 277.14505,148.82748 v -16.36381 l 2.31855,2.35241 c 1.61234,1.63592 2.45328,2.31738 2.76088,2.23735 0.41783,-0.10873 0.44233,0.53571 0.44233,11.62835 v 11.74344 l 5.70999,-0.12244 c 4.75214,-0.10189 6.04019,-0.21084 7.67827,-0.64939 5.60528,-1.50073 9.17382,-4.87734 10.61637,-10.04544 0.63359,-2.26982 0.6316,-8.43274 -0.003,-10.71852 -1.08269,-3.8971 -3.60993,-7.03276 -7.01038,-8.69812 -2.13705,-1.04661 -2.74579,-1.23281 -5.74054,-1.75588 l -2.4286,-0.42421 2.03988,-2.07092 2.03988,-2.07092 2.11059,0.52669 c 4.29226,1.07114 7.18216,2.64799 9.77295,5.33252 3.79088,3.92804 5.42593,8.26581 5.42982,14.40521 0.002,1.71691 -0.1448,3.79593 -0.32422,4.62005 -1.52508,7.00495 -6.33851,12.52762 -12.85571,14.74992 -3.07517,1.0486 -5.98956,1.35366 -14.58772,1.52694 l -7.96892,0.16058 z"
       id="path67" />
    <path
       style="fill:#131210;fill-opacity:0.172549;stroke-width:0.25036"
       d="M 277.14505,148.91218 V 132.6964 l 2.25716,2.22246 c 1.24144,1.22234 2.40979,2.22244 2.59633,2.22244 0.45937,0 0.66617,4.73943 0.66736,15.29421 v 8.17683 l 3.4511,-0.12679 c 9.32643,-0.34264 10.11595,-0.46168 13.29105,-2.00395 3.37635,-1.64001 6.06816,-4.72426 7.17323,-8.21899 0.48824,-1.54398 0.5546,-2.2916 0.54408,-6.12881 -0.0111,-4.06254 -0.0581,-4.49805 -0.66627,-6.1843 -1.82247,-5.05281 -5.88974,-8.37133 -11.53254,-9.40948 -1.29061,-0.23745 -2.49656,-0.47815 -2.67985,-0.53489 -0.20935,-0.0648 0.3467,-0.83447 1.49512,-2.06956 l 1.8284,-1.96639 2.26972,0.59328 c 1.24833,0.32632 3.34268,1.11384 4.6541,1.75005 2.03301,0.98628 2.7184,1.4922 4.65087,3.43301 1.71605,1.72348 2.5256,2.77438 3.33351,4.32739 1.71428,3.29525 2.12764,5.22396 2.15625,10.06089 0.0217,3.66524 -0.0406,4.32756 -0.56428,5.99358 -1.80271,5.73594 -5.24279,9.86553 -10.19556,12.23911 -1.38498,0.66375 -3.30877,1.37871 -4.27508,1.58881 -2.36333,0.51384 -7.03675,0.84724 -14.36913,1.02506 l -6.08648,0.14761 z"
       id="path78" />
    <path
       style="fill:#131210;fill-opacity:0.172549;stroke-width:0.25036"
       d="m 277.14505,148.90969 v -16.08724 l 2.44715,2.34673 c 2.09095,2.00514 2.4701,2.49212 2.6048,3.34565 0.0867,0.54941 0.24151,5.74696 0.344,11.55011 l 0.18636,10.55119 2.29139,-0.005 c 3.40098,-0.007 9.64269,-0.4417 11.07597,-0.77025 3.94233,-0.90372 7.91657,-4.01292 9.67156,-7.56647 0.54924,-1.11211 1.11085,-2.62734 1.24805,-3.3672 0.32509,-1.75333 0.32086,-7.57676 -0.007,-9.2957 -0.60604,-3.17966 -2.83286,-6.55436 -5.60146,-8.48894 -1.97526,-1.38022 -3.66151,-2.07088 -6.65081,-2.72405 -1.15082,-0.25146 -2.15525,-0.51971 -2.23203,-0.59612 -0.1653,-0.16446 2.63435,-3.39058 3.09499,-3.56645 0.49757,-0.18998 4.5264,1.11534 6.8707,2.22608 1.77177,0.83947 2.50602,1.38843 4.39231,3.28394 2.56216,2.5747 3.86636,4.61503 4.80701,7.52035 0.54269,1.67615 0.66856,2.62915 0.78173,5.91832 0.15134,4.39863 -0.0628,5.97516 -1.18419,8.71688 -1.13929,2.78551 -2.24454,4.44726 -4.39855,6.61324 -2.94628,2.96264 -6.43844,4.79664 -10.46519,5.49611 -2.02714,0.35211 -9.53657,0.78922 -15.70042,0.91388 l -3.5766,0.0723 z"
       id="path79" />
  </g>
</svg>
